<svg xmlns="http://www.w3.org/2000/svg" xmlns:xlink="http://www.w3.org/1999/xlink" width="500" zoomAndPan="magnify" viewBox="0 0 375 374.999991" height="500" preserveAspectRatio="xMidYMid meet" version="1.2"><defs><clipPath id="fb67120bbc"><path d="M 109.875 94.902344 L 179.625 94.902344 L 179.625 249.402344 L 109.875 249.402344 Z M 109.875 94.902344 "/></clipPath><clipPath id="6fc98728b2"><path d="M 194.429688 95.089844 L 264.929688 95.089844 L 264.929688 248.839844 L 194.429688 248.839844 Z M 194.429688 95.089844 "/></clipPath><clipPath id="4ddae53ebf"><path d="M 184.652344 78.214844 L 190.652344 78.214844 L 190.652344 265.714844 L 184.652344 265.714844 Z M 184.652344 78.214844 "/></clipPath></defs><g id="055089af6d"><rect x="0" width="375" y="0" height="374.999991" style="fill:#ffffff;fill-opacity:1;stroke:none;"/><rect x="0" width="375" y="0" height="374.999991" style="fill:#000000;fill-opacity:1;stroke:none;"/><g clip-rule="nonzero" clip-path="url(#fb67120bbc)"><path style=" stroke:none;fill-rule:nonzero;fill:#ffffff;fill-opacity:1;" d="M 185.136719 161.601562 L 168.382812 157.90625 C 150.316406 153.917969 143.375 147.90625 143.375 138.464844 C 143.375 126.5 152.589844 118.367188 170.175781 118.367188 C 184.832031 118.367188 194.417969 125.171875 197.839844 134.972656 C 198.089844 135.691406 198.320312 136.425781 198.488281 137.1875 C 198.644531 137.890625 198.765625 138.527344 198.867188 139.089844 C 199.152344 140.679688 200.542969 141.816406 202.15625 141.816406 L 223.773438 141.816406 C 224.703125 141.816406 225.59375 141.429688 226.222656 140.746094 C 226.855469 140.066406 227.179688 139.152344 227.113281 138.226562 C 225.257812 112.324219 202.671875 94.917969 170.910156 94.917969 C 136.40625 94.917969 113.226562 113.3125 113.226562 140.6875 C 113.226562 161.601562 129.121094 174.253906 155.566406 179.992188 L 174.4375 184.175781 C 193.113281 188.359375 200.324219 194.292969 200.324219 204.410156 C 200.324219 216.183594 188.671875 225.5625 171.511719 225.5625 C 155.753906 225.5625 144.0625 218.953125 139.964844 209.273438 C 139.28125 207.546875 138.804688 205.9375 138.492188 204.683594 C 138.109375 203.179688 136.78125 202.113281 135.230469 202.113281 L 113.226562 202.113281 C 112.292969 202.113281 111.394531 202.507812 110.761719 203.195312 C 110.128906 203.886719 109.8125 204.808594 109.890625 205.742188 C 112.09375 232.027344 135.648438 249.011719 169.898438 249.011719 C 207.261719 249.011719 230.472656 231.042969 230.472656 202.113281 C 230.472656 180.707031 214.710938 168.023438 185.136719 161.601562 Z M 185.136719 161.601562 "/></g><g clip-rule="nonzero" clip-path="url(#6fc98728b2)"><path style=" stroke:none;fill-rule:nonzero;fill:#8a55bf;fill-opacity:1;" d="M 261.585938 248.839844 L 237.125 248.839844 C 235.191406 248.839844 233.632812 247.273438 233.632812 245.34375 L 233.632812 182.449219 L 170.734375 182.449219 L 170.734375 245.34375 C 170.734375 247.273438 169.171875 248.839844 167.238281 248.839844 L 142.777344 248.839844 C 140.847656 248.839844 139.285156 247.273438 139.285156 245.34375 L 139.285156 98.585938 C 139.285156 96.65625 140.847656 95.089844 142.777344 95.089844 L 167.238281 95.089844 C 169.171875 95.089844 170.734375 96.65625 170.734375 98.585938 L 170.734375 154.492188 L 233.632812 154.492188 L 233.632812 98.585938 C 233.632812 96.65625 235.191406 95.089844 237.125 95.089844 L 261.585938 95.089844 C 263.519531 95.089844 265.078125 96.65625 265.078125 98.585938 L 265.078125 245.34375 C 265.078125 247.273438 263.519531 248.839844 261.585938 248.839844 Z M 261.585938 248.839844 "/></g><g clip-rule="nonzero" clip-path="url(#4ddae53ebf)"><path style=" stroke:none;fill-rule:nonzero;fill:#ffde59;fill-opacity:1;" d="M 184.652344 78.214844 L 190.652344 78.214844 L 190.652344 265.714844 L 184.652344 265.714844 Z M 184.652344 78.214844 "/></g></g></svg>